<?xml version="1.0" encoding="UTF-8"?>
<svg xmlns="http://www.w3.org/2000/svg" xmlns:xlink="http://www.w3.org/1999/xlink" width="362.4675pt" height="362.4675pt" viewBox="0 0 362.4675 362.4675" version="1.1">
<g id="surface1">
<path style=" stroke:none;fill-rule:nonzero;fill:rgb(0%,0%,0%);fill-opacity:1;" d="M 4.296875 24.984375 L 264.546875 285.234375 L 329.496094 350.175781 L 337.492188 358.179688 L 337.492188 358.175781 C 340.261719 360.878906 343.964844 362.410156 347.835938 362.460938 C 351.421875 362.460938 355.710938 360.871094 358.179688 358.179688 C 360.648438 355.488281 362.632813 351.730469 362.460938 347.835938 C 362.394531 343.96875 360.863281 340.273438 358.175781 337.492188 L 97.925781 77.242188 L 32.976563 12.300781 L 24.984375 4.296875 C 22.210938 1.597656 18.507813 0.0625 14.640625 0.015625 C 11.054688 0.015625 6.765625 1.605469 4.296875 4.296875 C 1.828125 6.988281 -0.15625 10.746094 0.015625 14.640625 C 0.078125 18.503906 1.609375 22.203125 4.296875 24.984375 Z M 4.296875 24.984375 "/>
<path style=" stroke:none;fill-rule:nonzero;fill:rgb(0%,0%,0%);fill-opacity:1;" d="M 24.984375 358.175781 L 285.234375 97.925781 L 350.175781 32.976563 L 358.179688 24.980469 L 358.175781 24.984375 C 360.878906 22.210938 362.410156 18.507813 362.460938 14.640625 C 362.460938 11.054688 360.871094 6.765625 358.179688 4.296875 C 355.488281 1.828125 351.730469 -0.15625 347.835938 0.015625 C 343.96875 0.078125 340.273438 1.609375 337.492188 4.296875 L 77.242188 264.546875 L 12.300781 329.496094 L 4.296875 337.492188 C 1.597656 340.261719 0.0625 343.964844 0.015625 347.835938 C 0.015625 351.421875 1.605469 355.710938 4.296875 358.179688 C 6.988281 360.648438 10.746094 362.632813 14.640625 362.460938 C 18.503906 362.394531 22.203125 360.863281 24.984375 358.175781 Z M 24.984375 358.175781 "/>
</g>
</svg>
