<?xml version="1.0" encoding="UTF-8"?>
<svg xmlns="http://www.w3.org/2000/svg" xmlns:xlink="http://www.w3.org/1999/xlink" width="298.92pt" height="338.625pt" viewBox="0 0 298.92 338.625" version="1.1">
<defs>
<clipPath id="clip1">
  <path d="M 0 0 L 298.921875 0 L 298.921875 236 L 0 236 Z M 0 0 "/>
</clipPath>
<clipPath id="clip2">
  <path d="M 0 106 L 298.921875 106 L 298.921875 338.625 L 0 338.625 Z M 0 106 "/>
</clipPath>
</defs>
<g id="surface1">
<path style=" stroke:none;fill-rule:nonzero;fill:rgb(99.607843%,100%,97.254902%);fill-opacity:1;" d="M 233.085938 81.75 C 233.085938 125.449219 197.660156 160.875 153.960938 160.875 C 110.261719 160.875 74.835938 125.449219 74.835938 81.75 C 74.835938 38.050781 110.261719 2.625 153.960938 2.625 C 197.660156 2.625 233.085938 38.050781 233.085938 81.75 "/>
<g clip-path="url(#clip1)" clip-rule="nonzero">
<path style="fill:none;stroke-width:7;stroke-linecap:butt;stroke-linejoin:miter;stroke:rgb(0%,0%,0%);stroke-opacity:1;stroke-miterlimit:10;" d="M 310.78125 109 C 310.78125 167.265625 263.546875 214.5 205.28125 214.5 C 147.015625 214.5 99.78125 167.265625 99.78125 109 C 99.78125 50.734375 147.015625 3.5 205.28125 3.5 C 263.546875 3.5 310.78125 50.734375 310.78125 109 " transform="matrix(0.75,0,0,0.75,0,0)"/>
</g>
<path style=" stroke:none;fill-rule:nonzero;fill:rgb(99.607843%,100%,97.254902%);fill-opacity:1;" d="M 144.960938 336 L 267.808594 336 C 275.957031 336.011719 283.722656 332.523438 289.125 326.425781 C 294.53125 320.328125 297.0625 312.207031 296.078125 304.117188 C 284.519531 211.5 221.273438 180.375 149.460938 180.375 C 77.648438 180.375 14.398438 211.5 2.84375 304.117188 C 1.855469 312.207031 4.386719 320.328125 9.792969 326.425781 C 15.199219 332.523438 22.960938 336.011719 31.109375 336 L 153.960938 336 "/>
<g clip-path="url(#clip2)" clip-rule="nonzero">
<path style="fill:none;stroke-width:6.99;stroke-linecap:butt;stroke-linejoin:miter;stroke:rgb(0%,0%,0%);stroke-opacity:1;stroke-miterlimit:10;" d="M 238.00125 496 L 401.798125 496 C 412.662708 496.015625 423.016875 491.364583 430.22 483.234375 C 437.428333 475.104167 440.803333 464.276042 439.490833 453.489583 C 424.079375 330 339.75125 288.5 244.00125 288.5 C 148.25125 288.5 63.917917 330 48.511667 453.489583 C 47.193958 464.276042 50.568958 475.104167 57.777292 483.234375 C 64.985625 491.364583 75.334583 496.015625 86.199167 496 L 250.00125 496 " transform="matrix(0.75,0,0,0.75,-33.54,-36)"/>
</g>
</g>
</svg>
